<svg id="svg" version="1.1" xmlns="http://www.w3.org/2000/svg" xmlns:xlink="http://www.w3.org/1999/xlink" width="400" height="400" viewBox="0, 0, 400,400"><g id="svgg"><path id="path0" d="M123.803 77.637 C 121.341 80.161,115.159 86.489,110.064 91.699 L 100.802 101.172 89.171 101.197 L 77.539 101.222 67.578 111.578 C 62.100 117.274,55.827 123.842,53.639 126.173 L 49.661 130.412 49.697 139.037 C 49.717 143.781,49.661 147.736,49.574 147.826 C 43.495 154.042,31.036 166.987,30.144 168.014 L 28.918 169.426 28.900 192.969 C 28.891 205.918,28.932 216.565,28.992 216.630 C 29.052 216.694,31.035 218.737,33.398 221.170 C 35.762 223.602,41.650 229.722,46.482 234.769 C 51.315 239.816,56.501 245.224,58.006 246.787 L 60.742 249.628 83.789 249.630 C 96.465 249.631,107.847 249.737,109.082 249.866 L 111.328 250.101 111.328 261.995 L 111.328 273.889 124.639 287.726 L 137.949 301.563 161.692 301.563 L 185.435 301.562 189.472 297.461 C 191.691 295.205,193.616 293.359,193.748 293.359 C 193.982 293.359,215.826 317.033,218.933 320.654 C 219.786 321.648,222.875 325.098,225.798 328.320 C 228.720 331.543,234.329 337.783,238.262 342.188 C 242.195 346.592,245.653 350.453,245.948 350.767 C 246.404 351.253,246.484 350.255,246.484 344.112 L 246.484 336.884 242.480 332.380 C 237.744 327.052,227.486 315.749,215.039 302.144 C 210.098 296.742,204.803 290.930,203.272 289.228 L 200.490 286.133 206.983 279.400 L 213.477 272.668 218.722 278.229 C 221.608 281.287,226.793 286.690,230.246 290.235 C 233.698 293.780,238.712 298.966,241.388 301.758 C 244.063 304.551,250.105 310.764,254.813 315.565 L 263.374 324.294 263.269 332.362 C 263.211 336.799,263.190 343.184,263.223 346.551 L 263.281 352.671 264.742 352.268 C 265.545 352.046,267.654 351.941,269.429 352.034 L 272.656 352.204 272.656 339.578 L 272.656 326.953 291.309 326.913 L 309.961 326.872 312.667 323.885 C 314.156 322.242,318.375 317.814,322.042 314.045 C 327.834 308.093,332.405 303.304,342.901 292.188 L 345.298 289.648 345.305 276.610 L 345.312 263.572 354.176 254.344 C 359.051 249.269,364.414 243.705,366.095 241.979 L 369.150 238.841 369.293 213.304 L 369.435 187.767 367.043 185.192 C 365.727 183.776,364.282 182.266,363.832 181.836 C 363.381 181.406,360.568 178.442,357.580 175.249 L 352.148 169.443 352.148 158.608 L 352.148 147.774 347.266 142.649 C 341.442 136.538,327.102 121.734,310.114 104.297 C 303.311 97.314,296.267 90.064,294.461 88.186 L 291.177 84.770 283.381 84.373 C 275.362 83.965,251.291 82.549,247.899 82.285 L 245.993 82.136 246.231 84.414 C 246.445 86.457,246.188 88.789,245.471 91.309 C 245.227 92.167,245.294 92.188,248.288 92.188 C 251.117 92.188,261.717 92.787,275.887 93.749 C 279.060 93.964,282.840 94.141,284.285 94.141 L 286.914 94.142 289.823 97.169 C 291.423 98.833,298.101 105.732,304.665 112.500 C 311.228 119.268,319.041 127.354,322.029 130.469 C 325.016 133.584,327.829 136.487,328.281 136.921 C 328.732 137.354,332.134 140.806,335.840 144.591 L 342.578 151.473 342.578 159.526 L 342.578 167.578 333.594 167.578 L 324.609 167.578 324.609 190.528 L 324.609 213.478 322.845 214.414 C 311.139 220.624,315.532 238.989,328.906 239.753 C 343.286 240.574,348.179 221.273,335.452 213.929 L 333.990 213.086 333.987 195.234 L 333.984 177.382 340.129 177.265 L 346.273 177.148 348.820 179.883 C 350.221 181.387,353.256 184.551,355.564 186.914 L 359.762 191.211 359.764 212.955 L 359.766 234.700 356.927 237.760 C 355.366 239.443,351.338 243.638,347.975 247.082 L 341.862 253.344 280.441 253.257 L 219.020 253.169 210.564 261.839 C 205.913 266.607,198.272 274.551,193.585 279.492 C 188.897 284.434,184.290 289.221,183.347 290.130 L 181.632 291.783 161.812 291.813 L 141.992 291.843 137.500 287.186 C 135.029 284.625,130.239 279.691,126.855 276.221 L 120.703 269.913 120.703 258.261 L 120.703 246.608 123.178 244.232 C 124.539 242.925,129.501 237.844,134.206 232.940 C 138.910 228.036,146.439 220.200,150.938 215.527 L 159.116 207.031 204.890 207.031 L 250.665 207.031 261.644 195.605 L 272.624 184.180 272.640 172.370 L 272.656 160.560 274.527 159.612 C 286.251 153.671,281.949 134.505,268.844 134.292 C 254.850 134.065,249.166 152.656,261.160 159.424 L 263.281 160.621 263.261 170.447 L 263.242 180.273 255.156 188.761 L 247.070 197.248 201.213 197.248 L 155.355 197.248 151.031 201.847 C 148.652 204.376,143.701 209.521,140.028 213.281 C 136.354 217.041,131.432 222.139,129.089 224.609 C 126.746 227.080,122.366 231.606,119.355 234.668 L 113.880 240.234 89.459 240.229 L 65.039 240.223 54.688 229.466 C 48.994 223.550,42.974 217.276,41.309 215.524 L 38.281 212.339 38.281 192.713 L 38.281 173.087 46.351 164.766 C 50.789 160.190,55.548 155.303,56.925 153.906 L 59.430 151.367 59.367 147.656 C 59.332 145.615,59.320 141.709,59.339 138.976 L 59.375 134.007 70.410 122.482 L 81.445 110.958 93.229 110.948 L 105.012 110.938 117.057 98.378 C 123.681 91.470,129.687 85.141,130.404 84.313 L 131.705 82.808 162.825 82.908 L 193.945 83.008 194.045 118.791 L 194.145 154.574 191.836 155.999 C 178.908 163.978,188.170 184.919,202.679 180.513 C 214.106 177.042,215.836 162.154,205.575 155.590 L 203.509 154.268 203.516 114.146 C 203.520 92.079,203.521 73.804,203.519 73.535 C 203.516 73.148,195.730 73.047,165.897 73.047 L 128.279 73.047 123.803 77.637 M270.665 143.144 C 272.991 144.347,273.997 147.619,272.772 149.992 C 270.170 155.032,262.918 153.518,262.896 147.930 C 262.881 143.898,267.098 141.300,270.665 143.144 M201.444 162.873 C 206.335 165.856,204.418 172.650,198.685 172.655 C 196.996 172.656,196.613 172.487,195.267 171.140 C 190.976 166.849,196.293 159.733,201.444 162.873 M125.731 170.117 C 122.704 171.091,120.277 172.998,118.401 175.873 L 116.684 178.505 86.369 178.496 L 56.055 178.487 55.945 183.409 L 55.836 188.330 64.734 188.280 C 69.628 188.252,83.494 188.241,95.546 188.255 L 117.459 188.281 118.166 189.847 C 121.628 197.525,132.605 199.112,138.872 192.839 C 148.769 182.934,138.904 165.876,125.731 170.117 M132.627 178.681 C 134.864 180.147,135.567 183.270,134.236 185.833 C 132.455 189.264,126.621 189.059,124.781 185.501 C 122.405 180.906,128.258 175.819,132.627 178.681 M331.400 221.245 C 336.592 223.414,335.108 231.641,329.524 231.641 C 322.450 231.641,322.525 221.236,329.602 220.738 C 329.878 220.719,330.687 220.947,331.400 221.245 M335.533 274.512 L 335.519 286.133 331.334 290.509 C 329.032 292.916,324.000 298.190,320.153 302.228 C 316.305 306.266,311.489 311.284,309.451 313.379 L 305.746 317.188 287.625 317.188 L 269.505 317.188 267.087 314.551 C 265.757 313.101,261.849 309.014,258.402 305.469 C 251.660 298.536,231.511 277.729,224.233 270.186 L 219.778 265.568 221.239 264.229 L 222.700 262.891 279.123 262.891 L 335.547 262.891 335.533 274.512 " stroke="none" fill="#073d77" fill-rule="evenodd"></path><path id="path1" d="M132.983 106.735 C 128.352 111.455,116.455 123.809,106.585 134.149 L 103.990 136.868 102.357 136.378 C 96.068 134.494,88.775 137.843,86.335 143.734 L 85.843 144.922 72.609 144.922 L 59.375 144.922 59.375 148.097 C 59.375 151.214,59.348 151.302,57.920 152.882 L 56.466 154.492 71.302 154.594 L 86.139 154.697 87.073 156.457 C 94.347 170.169,116.111 160.230,111.104 145.483 L 110.490 143.673 113.350 140.697 C 114.924 139.060,116.830 137.100,117.588 136.341 C 118.345 135.582,124.136 129.556,130.458 122.949 L 141.952 110.938 159.855 110.938 L 177.758 110.938 177.649 106.152 L 177.539 101.367 157.994 101.266 L 138.449 101.165 132.983 106.735 M253.125 115.820 L 253.125 120.703 265.154 120.703 L 277.183 120.703 287.029 130.954 L 296.875 141.205 296.870 170.700 L 296.865 200.195 290.324 206.836 C 286.726 210.488,281.292 216.108,278.248 219.324 L 272.714 225.172 228.314 225.233 L 183.915 225.293 181.981 227.198 C 180.917 228.245,176.336 232.983,171.802 237.727 L 163.556 246.353 161.954 245.795 C 150.342 241.748,139.985 256.263,147.085 266.636 C 155.481 278.903,174.644 269.968,170.941 255.513 L 170.309 253.047 171.320 251.845 C 171.877 251.184,175.789 247.084,180.014 242.735 L 187.695 234.827 232.031 234.835 L 276.367 234.843 287.428 223.574 C 293.511 217.376,300.323 210.350,302.564 207.962 L 306.641 203.619 306.641 173.489 C 306.641 145.064,306.679 143.358,307.324 143.334 C 307.700 143.320,313.932 143.283,321.173 143.252 L 334.338 143.196 332.110 140.853 C 330.885 139.565,328.786 137.394,327.445 136.029 L 325.006 133.548 313.951 133.582 L 302.895 133.615 298.433 129.015 C 295.979 126.484,291.015 121.382,287.402 117.676 L 280.832 110.938 266.979 110.938 L 253.125 110.938 253.125 115.820 M160.884 124.811 C 149.778 128.351,148.174 145.684,158.554 149.984 L 159.766 150.485 159.796 161.864 C 159.813 168.122,159.857 178.621,159.894 185.196 L 159.961 197.149 164.844 197.230 L 169.727 197.311 169.623 174.260 L 169.519 151.209 171.771 149.670 C 184.797 140.766,175.736 120.078,160.884 124.811 M167.039 133.056 C 169.027 133.999,170.075 135.701,170.041 137.930 C 169.957 143.483,163.118 145.221,160.163 140.441 C 157.471 136.085,162.359 130.835,167.039 133.056 M101.514 144.887 C 103.000 145.946,104.089 148.710,103.743 150.551 C 102.862 155.248,95.359 156.137,93.531 151.762 C 91.342 146.523,96.986 141.663,101.514 144.887 M55.859 197.005 L 55.859 205.728 63.712 213.802 L 71.564 221.875 101.600 221.875 L 131.636 221.875 136.033 217.344 C 138.451 214.852,140.488 212.655,140.560 212.461 C 140.637 212.254,127.287 212.109,108.119 212.109 L 75.549 212.109 70.392 206.901 L 65.234 201.693 65.234 194.987 L 65.234 188.281 60.547 188.281 L 55.859 188.281 55.859 197.005 M159.654 253.510 C 160.610 253.521,162.886 255.953,163.268 257.372 C 164.805 263.081,157.843 266.729,153.926 262.267 C 150.894 258.814,154.075 252.467,158.398 253.346 C 158.828 253.433,159.393 253.507,159.654 253.510 M236.056 281.563 C 235.745 281.758,237.124 283.430,240.157 286.534 L 244.727 291.211 287.687 291.112 L 330.647 291.012 333.111 288.572 L 335.576 286.133 335.464 283.789 L 335.352 281.445 285.938 281.358 C 258.760 281.310,236.313 281.402,236.056 281.563 " stroke="none" fill="#11b2d0" fill-rule="evenodd"></path><path id="path2" d="M0.000 200.000 L 0.000 400.000 200.000 400.000 L 400.000 400.000 400.000 200.000 L 400.000 0.000 200.000 0.000 L 0.000 0.000 0.000 200.000 M238.948 74.230 C 241.554 75.513,243.714 77.683,245.021 80.332 L 245.821 81.954 250.157 82.208 C 252.541 82.348,258.535 82.711,263.477 83.014 C 275.724 83.765,286.475 84.384,289.063 84.486 L 291.211 84.570 305.080 98.828 C 312.708 106.670,324.296 118.623,330.831 125.391 C 337.366 132.158,342.906 137.871,343.142 138.086 C 343.379 138.301,345.546 140.527,347.958 143.034 L 352.344 147.591 352.348 158.464 L 352.351 169.336 360.941 178.404 L 369.531 187.472 369.531 213.122 L 369.531 238.772 361.035 247.592 C 356.362 252.442,350.918 258.089,348.936 260.139 L 345.332 263.867 345.322 276.907 L 345.313 289.946 340.461 295.071 C 337.792 297.889,329.823 306.219,322.751 313.582 L 309.894 326.969 291.470 326.969 L 273.047 326.968 273.047 339.804 L 273.047 352.640 274.218 353.125 C 276.287 353.982,279.842 358.183,280.637 360.712 C 284.119 371.780,274.162 381.914,263.490 378.163 C 253.160 374.532,251.548 359.617,260.890 354.102 L 262.875 352.930 262.883 338.545 L 262.891 324.160 255.762 316.851 C 249.266 310.191,223.513 283.512,216.391 276.063 L 213.445 272.983 207.123 279.604 L 200.800 286.224 203.580 289.303 C 205.109 290.997,207.262 293.350,208.366 294.531 C 209.469 295.713,212.922 299.492,216.040 302.930 C 219.158 306.367,222.607 310.146,223.705 311.328 C 224.802 312.510,230.374 318.662,236.086 325.000 L 246.471 336.523 246.465 344.141 L 246.458 351.758 245.205 350.195 C 244.515 349.336,242.720 347.310,241.214 345.694 C 239.708 344.077,236.455 340.478,233.984 337.695 C 231.514 334.913,228.338 331.401,226.927 329.892 C 224.596 327.399,218.803 320.966,212.695 314.087 C 211.406 312.635,207.451 308.298,203.906 304.449 C 200.361 300.600,196.636 296.522,195.628 295.388 L 193.795 293.325 189.660 297.591 L 185.524 301.857 161.875 301.923 L 138.226 301.988 129.949 293.475 C 125.397 288.792,119.345 282.556,116.500 279.616 L 111.328 274.272 111.328 262.136 L 111.328 250.000 85.991 250.000 L 60.654 250.000 58.767 247.949 C 57.215 246.261,34.194 222.224,29.785 217.687 L 28.516 216.380 28.516 193.372 C 28.516 180.227,28.670 169.976,28.876 169.459 C 29.074 168.962,33.821 163.810,39.423 158.010 L 49.609 147.465 49.609 138.763 L 49.609 130.061 56.543 122.843 C 60.356 118.872,66.553 112.391,70.313 108.439 L 77.148 101.254 88.924 101.213 L 100.700 101.172 114.285 87.109 L 127.870 73.047 165.888 73.047 L 203.906 73.047 203.906 113.808 L 203.906 154.569 205.472 155.275 C 215.106 159.619,214.644 175.110,204.736 179.976 C 189.674 187.373,177.622 164.138,192.090 155.594 C 193.659 154.667,193.751 154.513,193.767 152.795 C 193.818 147.500,193.847 94.973,193.802 89.551 L 193.750 83.203 162.793 83.206 L 131.836 83.208 123.542 91.897 C 118.980 96.676,112.916 103.005,110.065 105.962 L 104.883 111.338 93.117 111.333 L 81.351 111.328 72.349 120.801 C 67.398 126.011,62.454 131.146,61.361 132.212 L 59.375 134.150 59.375 139.341 L 59.375 144.531 72.609 144.531 L 85.843 144.531 86.350 143.307 C 88.692 137.653,96.332 134.121,101.953 136.093 L 103.711 136.710 108.398 131.912 C 110.977 129.273,114.664 125.452,116.593 123.420 C 118.522 121.389,124.129 115.552,129.053 110.449 L 138.006 101.172 158.065 101.172 L 178.125 101.172 178.125 106.015 L 178.125 110.858 175.488 111.058 C 174.038 111.167,165.908 111.271,157.422 111.288 L 141.992 111.319 126.450 127.437 C 114.009 140.339,110.953 143.711,111.132 144.336 C 112.855 150.356,111.693 155.526,107.726 159.497 C 101.524 165.705,89.824 163.756,86.473 155.957 L 85.927 154.688 71.186 154.691 L 56.445 154.694 47.559 163.883 L 38.672 173.073 38.629 178.431 C 38.606 181.378,38.619 190.292,38.659 198.240 L 38.732 212.690 44.854 218.945 C 48.221 222.385,54.130 228.494,57.985 232.522 L 64.993 239.844 89.480 239.844 L 113.966 239.844 119.401 234.277 C 122.390 231.216,126.286 227.197,128.059 225.348 L 131.282 221.984 101.360 221.984 L 71.439 221.984 70.054 220.660 C 69.293 219.932,65.699 216.228,62.069 212.429 L 55.469 205.521 55.628 195.046 C 55.716 189.284,55.804 183.120,55.823 181.348 L 55.859 178.125 86.291 178.125 L 116.723 178.125 117.758 176.359 C 124.967 164.057,143.170 169.157,143.119 183.464 C 143.070 197.084,124.209 202.163,118.142 190.191 L 117.174 188.281 91.454 188.281 L 65.733 188.281 65.515 191.113 C 65.395 192.671,65.414 195.740,65.558 197.934 L 65.820 201.922 70.669 206.821 L 75.519 211.719 108.398 211.719 L 141.277 211.719 148.407 204.297 L 155.537 196.875 157.651 196.875 L 159.766 196.875 159.766 173.836 L 159.766 150.797 158.187 149.992 C 147.362 144.469,149.705 127.433,161.710 124.381 C 176.830 120.536,185.117 142.776,171.331 150.200 L 169.947 150.946 169.837 161.117 C 169.776 166.712,169.775 177.033,169.834 184.054 L 169.942 196.818 173.350 196.944 C 175.224 197.014,188.315 197.020,202.441 196.959 L 228.125 196.848 228.125 148.038 L 228.125 99.229 226.465 98.201 C 211.691 89.055,223.398 66.574,238.948 74.230 M230.195 81.992 C 226.655 84.216,227.085 89.245,230.979 91.154 C 236.151 93.689,240.779 86.420,236.533 82.431 C 235.148 81.130,231.922 80.907,230.195 81.992 M244.343 93.592 C 243.431 95.286,240.103 98.357,238.835 98.676 L 237.920 98.905 237.808 107.168 C 237.746 111.712,237.742 133.755,237.800 156.152 L 237.905 196.875 242.532 196.875 L 247.159 196.875 249.042 194.824 C 250.078 193.696,253.618 190.010,256.908 186.632 L 262.891 180.491 262.891 170.537 L 262.891 160.584 261.606 159.974 C 250.566 154.735,253.022 137.178,265.189 134.367 C 280.037 130.937,288.280 152.660,274.837 159.791 L 273.047 160.741 273.047 172.385 L 273.047 184.030 262.035 195.531 L 251.023 207.031 205.023 207.031 C 165.582 207.031,158.979 207.111,158.711 207.589 C 158.539 207.895,155.938 210.670,152.930 213.754 C 149.922 216.839,144.040 222.960,139.859 227.357 C 135.678 231.754,129.745 237.908,126.675 241.032 L 121.094 246.712 121.106 258.415 L 121.117 270.117 131.750 280.974 L 142.383 291.830 161.948 291.814 L 181.512 291.797 184.204 288.965 C 186.403 286.652,213.011 258.979,217.441 254.397 L 218.672 253.125 280.332 253.101 L 341.992 253.078 350.684 244.072 L 359.375 235.067 359.371 213.139 L 359.366 191.211 354.866 186.523 C 352.391 183.945,349.466 180.825,348.367 179.590 L 346.367 177.344 340.273 177.344 L 334.180 177.344 334.236 195.201 C 334.277 208.048,334.416 213.100,334.733 213.205 C 336.345 213.742,339.815 216.991,341.103 219.168 C 347.740 230.388,336.605 243.808,324.552 239.114 C 313.812 234.932,312.918 219.230,323.124 214.023 L 324.608 213.266 324.596 190.550 C 324.587 172.505,324.688 167.765,325.085 167.495 C 325.361 167.308,329.365 167.206,333.984 167.267 L 342.383 167.380 342.489 159.584 L 342.595 151.788 338.394 147.574 L 334.193 143.359 320.401 143.359 L 306.609 143.359 306.641 159.473 C 306.659 168.335,306.664 182.002,306.652 189.844 L 306.631 204.102 302.437 208.448 C 300.130 210.838,293.344 217.825,287.356 223.975 L 276.471 235.156 232.080 235.156 L 187.690 235.156 179.137 243.976 L 170.583 252.796 171.034 254.748 C 175.053 272.161,150.845 280.359,145.178 263.505 C 141.619 252.915,153.423 240.845,162.558 245.734 C 163.325 246.145,163.687 245.887,166.564 242.878 C 168.303 241.059,172.864 236.293,176.699 232.286 L 183.671 225.000 228.108 225.000 L 272.545 225.000 278.362 218.874 C 281.562 215.504,287.036 209.858,290.527 206.326 L 296.875 199.905 296.875 170.686 L 296.875 141.467 289.944 134.308 C 286.132 130.370,281.631 125.711,279.942 123.954 L 276.870 120.760 264.900 120.829 L 252.930 120.898 252.821 115.975 L 252.712 111.051 255.124 110.799 C 256.451 110.660,262.760 110.547,269.145 110.547 L 280.753 110.547 287.356 117.285 C 290.987 120.991,295.977 126.093,298.444 128.622 L 302.930 133.220 313.663 133.114 L 324.396 133.008 316.006 124.455 C 311.392 119.751,307.441 115.702,307.227 115.457 C 307.012 115.212,304.199 112.289,300.977 108.963 C 297.754 105.637,293.300 101.039,291.079 98.745 L 287.041 94.575 279.946 94.167 C 276.044 93.943,267.051 93.408,259.961 92.978 C 243.558 91.984,245.245 91.918,244.343 93.592 M161.859 133.612 C 158.716 135.625,159.087 140.618,162.511 142.389 C 168.176 145.318,172.831 137.334,167.621 133.625 C 166.130 132.562,163.506 132.557,161.859 133.612 M195.759 163.489 C 193.402 165.472,193.212 168.933,195.343 171.064 C 198.570 174.291,203.906 172.072,203.906 167.502 C 203.906 163.316,198.897 160.849,195.759 163.489 M221.296 264.446 L 220.180 265.611 222.491 268.059 C 223.761 269.406,226.911 272.672,229.489 275.318 C 232.067 277.963,234.317 280.380,234.490 280.689 C 234.761 281.172,241.787 281.250,285.176 281.250 L 335.547 281.250 335.547 272.266 L 335.547 263.281 278.979 263.281 L 222.412 263.281 221.296 264.446 M250.445 296.858 C 253.315 299.857,258.789 305.573,262.609 309.562 L 269.555 316.813 287.272 316.923 C 297.017 316.984,305.259 316.936,305.588 316.817 C 305.917 316.699,308.705 313.955,311.784 310.719 C 314.863 307.484,320.260 301.815,323.776 298.122 L 330.169 291.406 287.697 291.406 L 245.226 291.406 250.445 296.858 M265.351 360.922 C 261.890 363.032,262.054 368.271,265.640 370.125 C 269.054 371.890,273.049 369.378,273.045 365.470 C 273.042 361.353,268.777 358.833,265.351 360.922 " stroke="none" fill="#fbfbfb" fill-rule="evenodd"></path><path id="path3" d="M229.974 73.057 C 218.034 76.065,215.859 91.636,226.463 98.200 L 228.122 99.227 228.221 148.148 L 228.320 197.070 231.055 197.158 C 232.559 197.207,234.716 197.150,235.848 197.032 L 237.908 196.817 237.890 155.928 C 237.881 133.439,237.877 111.411,237.882 106.976 L 237.891 98.913 238.919 98.655 C 240.678 98.213,244.297 94.227,245.249 91.682 C 249.167 81.209,240.341 70.447,229.974 73.057 M236.533 82.431 C 240.779 86.420,236.151 93.689,230.979 91.154 C 227.085 89.245,226.655 84.216,230.195 81.992 C 231.922 80.907,235.148 81.130,236.533 82.431 M265.351 143.344 C 261.916 145.438,262.171 150.781,265.788 152.497 C 271.749 155.326,276.225 146.782,270.584 143.342 C 268.991 142.371,266.945 142.372,265.351 143.344 M95.820 144.906 C 93.535 146.299,92.777 149.021,93.915 151.744 C 95.447 155.413,101.380 155.136,102.974 151.322 C 104.891 146.733,100.007 142.353,95.820 144.906 M127.471 178.343 C 122.271 180.995,123.973 188.281,129.791 188.281 C 133.646 188.281,135.824 184.539,134.212 180.682 C 133.187 178.227,129.920 177.094,127.471 178.343 M328.131 221.136 C 325.948 221.597,324.218 223.779,324.220 226.068 C 324.225 232.095,332.082 233.868,334.200 228.322 C 335.817 224.086,332.539 220.204,328.131 221.136 M156.022 254.071 C 152.162 255.751,151.835 260.785,155.429 263.178 C 160.093 266.285,165.552 260.129,162.065 255.696 C 160.462 253.658,158.303 253.078,156.022 254.071 M263.896 352.545 C 249.534 358.043,252.893 378.906,268.140 378.906 C 285.051 378.906,285.837 352.738,268.945 352.092 C 266.477 351.998,264.973 352.132,263.896 352.545 M270.349 360.761 C 274.964 363.148,273.220 370.674,268.047 370.697 C 265.176 370.710,262.891 368.517,262.891 365.748 C 262.891 361.492,266.760 358.905,270.349 360.761 " stroke="none" fill="#f5bb47" fill-rule="evenodd"></path><path id="path4" d="M124.406 76.660 L 120.898 80.273 124.512 76.766 C 127.868 73.508,128.303 73.047,128.019 73.047 C 127.961 73.047,126.335 74.673,124.406 76.660 M203.704 114.258 C 203.704 136.387,203.751 145.382,203.809 134.248 C 203.866 123.113,203.866 105.007,203.808 94.013 C 203.751 83.019,203.704 92.129,203.704 114.258 M114.252 87.207 L 109.180 92.383 114.355 87.310 C 119.163 82.598,119.708 82.031,119.428 82.031 C 119.371 82.031,117.042 84.360,114.252 87.207 M247.559 82.307 C 248.042 82.400,248.833 82.400,249.316 82.307 C 249.800 82.214,249.404 82.138,248.438 82.138 C 247.471 82.138,247.075 82.214,247.559 82.307 M254.395 82.702 C 254.985 82.791,255.952 82.791,256.543 82.702 C 257.134 82.612,256.650 82.539,255.469 82.539 C 254.287 82.539,253.804 82.612,254.395 82.702 M130.642 84.080 L 129.492 85.352 130.685 84.277 L 131.879 83.203 162.805 83.203 L 193.731 83.203 193.853 89.454 L 193.975 95.704 193.960 89.356 L 193.945 83.008 162.868 82.908 L 131.791 82.808 130.642 84.080 M260.840 83.088 C 261.323 83.181,262.114 83.181,262.598 83.088 C 263.081 82.995,262.686 82.919,261.719 82.919 C 260.752 82.919,260.356 82.995,260.840 83.088 M266.900 83.483 C 267.494 83.573,268.373 83.571,268.853 83.478 C 269.333 83.385,268.848 83.312,267.773 83.315 C 266.699 83.318,266.306 83.394,266.900 83.483 M273.535 83.874 C 274.126 83.963,275.093 83.963,275.684 83.874 C 276.274 83.784,275.791 83.711,274.609 83.711 C 273.428 83.711,272.944 83.784,273.535 83.874 M279.980 84.260 C 280.464 84.353,281.255 84.353,281.738 84.260 C 282.222 84.167,281.826 84.091,280.859 84.091 C 279.893 84.091,279.497 84.167,279.980 84.260 M289.452 84.666 C 290.419 84.751,291.561 85.115,291.991 85.476 C 292.767 86.128,292.768 86.126,292.029 85.254 C 291.436 84.553,290.922 84.389,289.490 84.443 L 287.695 84.511 289.452 84.666 M246.184 86.328 C 246.184 87.080,246.265 87.388,246.363 87.012 C 246.461 86.636,246.461 86.021,246.363 85.645 C 246.265 85.269,246.184 85.576,246.184 86.328 M124.602 90.527 L 120.508 94.727 124.707 90.632 C 127.017 88.380,128.906 86.490,128.906 86.433 C 128.906 86.151,128.406 86.627,124.602 90.527 M293.750 87.622 C 293.750 87.689,294.321 88.261,295.020 88.892 L 296.289 90.039 295.142 88.770 C 294.072 87.586,293.750 87.320,293.750 87.622 M301.165 95.020 C 304.968 98.920,305.469 99.396,305.469 99.114 C 305.469 99.057,303.579 97.167,301.270 94.915 L 297.070 90.820 301.165 95.020 M250.691 92.471 C 251.393 92.558,252.447 92.556,253.034 92.467 C 253.621 92.377,253.047 92.306,251.758 92.309 C 250.469 92.311,249.988 92.384,250.691 92.471 M257.520 92.858 C 258.110 92.947,259.077 92.947,259.668 92.858 C 260.259 92.768,259.775 92.695,258.594 92.695 C 257.412 92.695,256.929 92.768,257.520 92.858 M263.965 93.244 C 264.448 93.338,265.239 93.338,265.723 93.244 C 266.206 93.151,265.811 93.075,264.844 93.075 C 263.877 93.075,263.481 93.151,263.965 93.244 M270.806 93.640 C 271.400 93.729,272.279 93.727,272.759 93.634 C 273.240 93.542,272.754 93.468,271.680 93.471 C 270.605 93.474,270.212 93.550,270.806 93.640 M276.270 94.030 C 276.860 94.119,277.827 94.119,278.418 94.030 C 279.009 93.940,278.525 93.867,277.344 93.867 C 276.162 93.867,275.679 93.940,276.270 94.030 M284.082 94.420 C 284.673 94.510,285.640 94.510,286.230 94.420 C 286.821 94.331,286.338 94.258,285.156 94.258 C 283.975 94.258,283.491 94.331,284.082 94.420 M116.399 99.121 L 112.695 102.930 116.504 99.226 C 118.599 97.190,120.313 95.476,120.313 95.418 C 120.313 95.135,119.838 95.584,116.399 99.121 M289.844 97.388 C 289.844 97.455,290.415 98.026,291.113 98.657 L 292.383 99.805 291.236 98.535 C 290.166 97.352,289.844 97.086,289.844 97.388 M193.867 100.391 C 193.867 101.572,193.940 102.056,194.030 101.465 C 194.119 100.874,194.119 99.907,194.030 99.316 C 193.940 98.726,193.867 99.209,193.867 100.391 M101.733 100.098 L 100.586 101.367 101.855 100.220 C 103.039 99.150,103.305 98.828,103.003 98.828 C 102.936 98.828,102.364 99.399,101.733 100.098 M134.172 105.176 L 130.273 109.180 134.277 105.281 C 136.479 103.136,138.281 101.335,138.281 101.277 C 138.281 100.994,137.794 101.457,134.172 105.176 M177.644 104.589 C 177.829 110.657,177.987 111.254,178.057 106.152 C 178.094 103.413,177.993 101.171,177.832 101.171 C 177.671 101.170,177.586 102.709,177.644 104.589 M73.047 105.664 C 71.446 107.275,70.225 108.594,70.332 108.594 C 70.439 108.594,71.837 107.275,73.438 105.664 C 75.038 104.053,76.260 102.734,76.152 102.734 C 76.045 102.734,74.647 104.053,73.047 105.664 M193.849 104.492 C 193.853 105.352,193.933 105.657,194.026 105.171 C 194.120 104.685,194.116 103.982,194.018 103.609 C 193.921 103.235,193.844 103.633,193.849 104.492 M298.438 106.445 C 300.254 108.271,301.828 109.766,301.936 109.766 C 302.043 109.766,300.645 108.271,298.828 106.445 C 297.011 104.619,295.437 103.125,295.330 103.125 C 295.222 103.125,296.621 104.619,298.438 106.445 M314.648 108.984 C 317.004 111.348,319.020 113.281,319.127 113.281 C 319.235 113.281,317.395 111.348,315.039 108.984 C 312.683 106.621,310.668 104.688,310.560 104.688 C 310.453 104.688,312.292 106.621,314.648 108.984 M107.411 108.496 L 104.883 111.133 107.520 108.605 C 109.969 106.257,110.335 105.859,110.047 105.859 C 109.987 105.859,108.801 107.046,107.411 108.496 M262.012 110.839 C 265.503 110.904,271.216 110.904,274.707 110.839 C 278.198 110.774,275.342 110.721,268.359 110.721 C 261.377 110.721,258.521 110.774,262.012 110.839 M79.864 112.598 L 78.320 114.258 79.893 112.799 L 81.466 111.340 93.174 111.230 L 104.883 111.121 93.146 111.029 L 81.409 110.938 79.864 112.598 M139.247 113.770 L 136.523 116.602 139.355 113.878 C 140.913 112.380,142.188 111.105,142.188 111.046 C 142.188 110.759,141.777 111.139,139.247 113.770 M146.995 111.229 C 149.531 111.298,153.574 111.297,155.979 111.229 C 158.384 111.160,156.309 111.105,151.367 111.105 C 146.426 111.105,144.458 111.161,146.995 111.229 M162.598 111.217 C 163.188 111.307,164.155 111.307,164.746 111.217 C 165.337 111.128,164.854 111.055,163.672 111.055 C 162.490 111.055,162.007 111.128,162.598 111.217 M171.378 111.219 C 172.071 111.306,173.302 111.307,174.112 111.223 C 174.923 111.138,174.355 111.067,172.852 111.066 C 171.348 111.064,170.685 111.133,171.378 111.219 M252.910 115.788 C 252.926 119.931,253.035 120.863,253.516 120.994 C 253.936 121.108,253.967 121.058,253.626 120.815 C 253.309 120.590,253.107 118.857,253.021 115.610 L 252.891 110.742 252.910 115.788 M123.431 116.309 L 119.336 120.508 123.535 116.413 C 127.435 112.610,127.912 112.109,127.630 112.109 C 127.572 112.109,125.683 113.999,123.431 116.309 M193.849 113.477 C 193.853 114.336,193.933 114.642,194.026 114.156 C 194.120 113.670,194.116 112.967,194.018 112.593 C 193.921 112.220,193.844 112.617,193.849 113.477 M288.281 118.555 C 291.606 121.885,294.414 124.609,294.522 124.609 C 294.629 124.609,291.997 121.885,288.672 118.555 C 285.347 115.225,282.539 112.500,282.431 112.500 C 282.324 112.500,284.956 115.225,288.281 118.555 M60.736 118.457 L 56.445 122.852 60.840 118.561 C 63.257 116.202,65.234 114.224,65.234 114.167 C 65.234 113.885,64.720 114.375,60.736 118.457 M311.914 120.313 C 314.485 122.891,316.677 125.000,316.785 125.000 C 316.892 125.000,314.876 122.891,312.305 120.313 C 309.733 117.734,307.542 115.625,307.434 115.625 C 307.327 115.625,309.343 117.734,311.914 120.313 M72.648 120.215 L 69.336 123.633 72.754 120.321 C 75.928 117.245,76.350 116.797,76.066 116.797 C 76.007 116.797,74.469 118.335,72.648 120.215 M131.055 122.266 C 128.483 124.844,126.467 126.953,126.575 126.953 C 126.682 126.953,128.874 124.844,131.445 122.266 C 134.017 119.687,136.033 117.578,135.925 117.578 C 135.818 117.578,133.626 119.687,131.055 122.266 M326.758 121.484 C 328.898 123.633,330.737 125.391,330.845 125.391 C 330.952 125.391,329.289 123.633,327.148 121.484 C 325.008 119.336,323.169 117.578,323.062 117.578 C 322.954 117.578,324.617 119.336,326.758 121.484 M193.889 122.070 C 193.887 124.004,193.954 124.844,194.035 123.938 C 194.117 123.031,194.118 121.449,194.038 120.422 C 193.957 119.395,193.890 120.137,193.889 122.070 M256.159 120.986 C 256.861 121.073,257.916 121.071,258.503 120.982 C 259.090 120.893,258.516 120.822,257.227 120.824 C 255.938 120.826,255.457 120.899,256.159 120.986 M269.043 120.979 C 269.526 121.072,270.317 121.072,270.801 120.979 C 271.284 120.886,270.889 120.810,269.922 120.810 C 268.955 120.810,268.560 120.886,269.043 120.979 M279.297 123.242 C 280.681 124.639,281.901 125.781,282.009 125.781 C 282.116 125.781,281.072 124.639,279.688 123.242 C 278.303 121.846,277.083 120.703,276.976 120.703 C 276.868 120.703,277.913 121.846,279.297 123.242 M164.160 124.108 C 164.751 124.197,165.718 124.197,166.309 124.108 C 166.899 124.018,166.416 123.945,165.234 123.945 C 164.053 123.945,163.569 124.018,164.160 124.108 M52.723 126.855 L 50.195 129.492 52.832 126.964 C 54.282 125.574,55.469 124.388,55.469 124.328 C 55.469 124.040,55.071 124.406,52.723 126.855 M64.251 129.004 L 59.961 133.398 64.355 129.108 C 66.772 126.749,68.750 124.771,68.750 124.714 C 68.750 124.432,68.236 124.922,64.251 129.004 M299.406 129.980 L 302.913 133.594 313.761 133.594 C 319.728 133.594,324.609 133.451,324.609 133.276 C 324.609 133.102,324.038 132.442,323.340 131.811 L 322.070 130.664 323.218 131.934 L 324.365 133.203 313.655 133.203 L 302.945 133.203 299.422 129.785 L 295.898 126.367 299.406 129.980 M287.695 132.031 C 290.482 134.824,292.850 137.109,292.957 137.109 C 293.065 137.109,290.873 134.824,288.086 132.031 C 285.299 129.238,282.931 126.953,282.824 126.953 C 282.716 126.953,284.909 129.238,287.695 132.031 M336.914 132.031 C 339.485 134.609,341.677 136.719,341.785 136.719 C 341.892 136.719,339.876 134.609,337.305 132.031 C 334.733 129.453,332.542 127.344,332.434 127.344 C 332.327 127.344,334.343 129.453,336.914 132.031 M193.915 135.742 C 193.916 140.254,193.973 142.046,194.042 139.725 C 194.111 137.404,194.111 133.712,194.041 131.522 C 193.972 129.331,193.915 131.230,193.915 135.742 M110.327 129.785 L 109.180 131.055 110.449 129.907 C 111.633 128.838,111.898 128.516,111.597 128.516 C 111.529 128.516,110.958 129.087,110.327 129.785 M121.866 131.934 L 118.555 135.352 121.973 132.040 C 125.147 128.964,125.569 128.516,125.284 128.516 C 125.226 128.516,123.688 130.054,121.866 131.934 M106.239 134.277 L 103.711 136.914 106.348 134.386 C 107.798 132.996,108.984 131.809,108.984 131.750 C 108.984 131.462,108.587 131.828,106.239 134.277 M96.191 135.816 C 96.567 135.914,97.183 135.914,97.559 135.816 C 97.935 135.718,97.627 135.638,96.875 135.638 C 96.123 135.638,95.815 135.718,96.191 135.816 M98.926 135.816 C 99.302 135.914,99.917 135.914,100.293 135.816 C 100.669 135.718,100.361 135.638,99.609 135.638 C 98.857 135.638,98.550 135.718,98.926 135.816 M151.297 137.891 C 151.297 139.287,151.368 139.858,151.454 139.160 C 151.541 138.462,151.541 137.319,151.454 136.621 C 151.368 135.923,151.297 136.494,151.297 137.891 M277.148 137.891 C 278.207 138.965,279.160 139.844,279.268 139.844 C 279.375 139.844,278.597 138.965,277.539 137.891 C 276.481 136.816,275.527 135.938,275.420 135.938 C 275.313 135.938,276.090 136.816,277.148 137.891 M178.237 138.086 C 178.240 139.160,178.316 139.553,178.405 138.959 C 178.495 138.366,178.493 137.487,178.400 137.006 C 178.307 136.526,178.234 137.012,178.237 138.086 M90.332 138.255 C 89.462 138.886,88.626 139.602,88.475 139.846 C 88.264 140.188,91.320 138.041,92.155 137.261 C 92.760 136.696,91.647 137.303,90.332 138.255 M112.713 141.388 C 110.612 143.511,110.452 143.792,110.872 144.611 L 111.332 145.508 111.094 144.584 C 110.900 143.829,111.274 143.237,113.131 141.361 C 114.382 140.097,115.317 139.063,115.210 139.063 C 115.102 139.063,113.979 140.109,112.713 141.388 M49.708 142.383 C 49.712 143.242,49.792 143.548,49.886 143.062 C 49.979 142.576,49.976 141.873,49.878 141.499 C 49.780 141.126,49.704 141.523,49.708 142.383 M349.219 144.727 C 350.603 146.123,351.823 147.266,351.931 147.266 C 352.038 147.266,350.993 146.123,349.609 144.727 C 348.225 143.330,347.005 142.188,346.898 142.188 C 346.790 142.188,347.835 143.330,349.219 144.727 M326.475 143.255 C 327.394 143.338,328.800 143.337,329.600 143.253 C 330.400 143.169,329.648 143.101,327.930 143.103 C 326.211 143.104,325.556 143.173,326.475 143.255 M338.086 147.266 C 340.226 149.414,342.065 151.172,342.173 151.172 C 342.280 151.172,340.617 149.414,338.477 147.266 C 336.336 145.117,334.497 143.359,334.390 143.359 C 334.282 143.359,335.946 145.117,338.086 147.266 M97.754 144.019 C 98.130 144.118,98.745 144.118,99.121 144.019 C 99.497 143.921,99.189 143.841,98.438 143.841 C 97.686 143.841,97.378 143.921,97.754 144.019 M100.885 144.858 C 101.479 145.250,102.236 145.908,102.567 146.320 C 103.148 147.045,103.155 147.043,102.772 146.247 C 102.387 145.447,100.731 144.138,100.111 144.143 C 99.943 144.145,100.291 144.466,100.885 144.858 M193.862 145.898 C 193.865 146.973,193.941 147.366,194.030 146.772 C 194.120 146.178,194.118 145.299,194.025 144.819 C 193.932 144.338,193.859 144.824,193.862 145.898 M65.918 144.824 C 69.624 144.888,75.688 144.888,79.395 144.824 C 83.101 144.759,80.068 144.707,72.656 144.707 C 65.244 144.707,62.212 144.759,65.918 144.824 M94.447 145.605 C 91.517 148.964,93.591 154.806,97.656 154.646 C 98.549 154.611,98.533 154.583,97.461 154.325 C 93.640 153.403,92.134 149.571,94.324 146.344 C 95.359 144.818,95.413 144.498,94.447 145.605 M47.252 149.902 L 45.117 152.148 47.363 150.013 C 48.599 148.839,49.609 147.828,49.609 147.767 C 49.609 147.477,49.236 147.816,47.252 149.902 M352.044 148.828 C 352.044 149.580,352.124 149.888,352.222 149.512 C 352.321 149.136,352.321 148.521,352.222 148.145 C 352.124 147.769,352.044 148.076,352.044 148.828 M103.371 149.969 C 103.068 151.861,101.122 154.102,99.513 154.412 C 98.706 154.567,98.700 154.586,99.441 154.634 C 101.457 154.767,104.470 150.715,103.816 148.752 C 103.723 148.473,103.522 149.020,103.371 149.969 M111.809 149.609 C 111.809 150.361,111.890 150.669,111.988 150.293 C 112.086 149.917,112.086 149.302,111.988 148.926 C 111.890 148.550,111.809 148.857,111.809 149.609 M193.744 152.814 C 193.640 154.039,193.697 154.898,193.871 154.724 C 194.045 154.549,194.130 153.546,194.060 152.496 L 193.933 150.586 193.744 152.814 M169.701 160.938 C 169.701 166.416,169.756 168.657,169.823 165.918 C 169.890 163.179,169.890 158.696,169.823 155.957 C 169.756 153.218,169.701 155.459,169.701 160.938 M54.297 156.445 C 53.348 157.412,52.660 158.203,52.767 158.203 C 52.874 158.203,53.739 157.412,54.688 156.445 C 55.636 155.479,56.325 154.688,56.217 154.688 C 56.110 154.688,55.246 155.479,54.297 156.445 M86.328 155.751 C 86.328 155.978,86.690 156.578,87.133 157.086 L 87.937 158.008 87.251 156.836 C 86.348 155.294,86.328 155.271,86.328 155.751 M205.859 155.540 C 209.665 158.994,210.332 159.524,208.789 157.866 C 207.930 156.943,206.875 156.002,206.445 155.776 C 206.016 155.549,205.752 155.443,205.859 155.540 M257.377 156.578 C 257.811 157.188,258.475 157.935,258.853 158.238 C 259.230 158.541,258.945 158.042,258.220 157.129 C 256.730 155.254,256.177 154.892,257.377 156.578 M277.323 157.715 L 275.977 159.180 277.441 157.834 C 278.805 156.581,279.086 156.250,278.788 156.250 C 278.722 156.250,278.063 156.909,277.323 157.715 M36.710 160.840 L 33.398 164.258 36.816 160.946 C 39.991 157.870,40.412 157.422,40.128 157.422 C 40.070 157.422,38.532 158.960,36.710 160.840 M87.891 158.325 C 87.891 158.393,88.462 158.964,89.160 159.595 L 90.430 160.742 89.282 159.473 C 88.213 158.289,87.891 158.024,87.891 158.325 M107.593 159.473 L 106.445 160.742 107.715 159.595 C 108.413 158.964,108.984 158.393,108.984 158.325 C 108.984 158.024,108.662 158.289,107.593 159.473 M274.121 159.792 L 272.656 160.566 272.656 172.365 L 272.656 184.164 269.238 187.688 L 265.820 191.211 269.434 187.703 L 273.047 184.196 273.047 172.419 L 273.047 160.642 274.227 160.153 C 274.876 159.884,275.502 159.511,275.617 159.324 C 275.898 158.871,275.821 158.895,274.121 159.792 M45.898 165.234 C 42.681 168.457,40.137 171.094,40.244 171.094 C 40.352 171.094,43.072 168.457,46.289 165.234 C 49.506 162.012,52.051 159.375,51.943 159.375 C 51.836 159.375,49.116 162.012,45.898 165.234 M352.094 163.281 C 352.094 165.322,352.160 166.157,352.240 165.137 C 352.321 164.116,352.321 162.446,352.240 161.426 C 352.160 160.405,352.094 161.240,352.094 163.281 M262.806 170.196 C 262.891 177.851,262.800 180.311,262.415 180.804 C 261.968 181.376,261.988 181.387,262.598 180.909 C 263.319 180.343,263.691 160.847,262.988 160.412 C 262.827 160.312,262.745 164.715,262.806 170.196 M198.344 162.386 C 198.830 162.479,199.533 162.476,199.907 162.378 C 200.280 162.280,199.883 162.204,199.023 162.208 C 198.164 162.212,197.858 162.292,198.344 162.386 M203.997 167.578 C 203.997 168.330,204.077 168.638,204.176 168.262 C 204.274 167.886,204.274 167.271,204.176 166.895 C 204.077 166.519,203.997 166.826,203.997 167.578 M329.024 167.479 C 331.130 167.549,334.470 167.549,336.446 167.478 C 338.422 167.408,336.699 167.350,332.617 167.350 C 328.535 167.351,326.918 167.409,329.024 167.479 M351.998 168.568 C 351.970 169.063,352.799 170.167,354.199 171.498 L 356.445 173.633 354.430 171.484 C 353.321 170.303,352.331 168.984,352.229 168.555 C 352.046 167.785,352.043 167.785,351.998 168.568 M28.699 192.773 C 28.699 205.449,28.748 210.578,28.808 204.171 C 28.869 197.764,28.869 187.393,28.808 181.124 C 28.748 174.856,28.699 180.098,28.699 192.773 M138.656 173.145 C 140.274 174.869,140.625 175.179,140.625 174.886 C 140.625 174.823,139.790 173.988,138.770 173.031 L 136.914 171.289 138.656 173.145 M169.718 184.180 L 169.727 197.070 172.852 197.094 L 175.977 197.118 172.955 196.981 L 169.933 196.844 169.821 184.066 L 169.710 171.289 169.718 184.180 M38.916 172.602 C 38.354 173.224,38.276 174.091,38.380 178.559 L 38.501 183.789 38.587 178.546 C 38.656 174.300,38.795 173.168,39.318 172.589 C 39.674 172.196,39.877 171.875,39.770 171.875 C 39.662 171.875,39.278 172.202,38.916 172.602 M359.570 177.344 C 361.063 178.848,362.372 180.078,362.479 180.078 C 362.586 180.078,361.453 178.848,359.961 177.344 C 358.469 175.840,357.160 174.609,357.052 174.609 C 356.945 174.609,358.078 175.840,359.570 177.344 M208.203 177.148 C 207.254 178.115,206.566 178.906,206.673 178.906 C 206.781 178.906,207.645 178.115,208.594 177.148 C 209.543 176.182,210.231 175.391,210.124 175.391 C 210.016 175.391,209.152 176.182,208.203 177.148 M63.549 178.417 C 67.241 178.481,73.394 178.481,77.221 178.417 C 81.048 178.353,78.027 178.301,70.508 178.301 C 62.988 178.301,59.857 178.353,63.549 178.417 M92.480 178.418 C 96.831 178.480,103.950 178.480,108.301 178.418 C 112.651 178.355,109.092 178.303,100.391 178.303 C 91.689 178.303,88.130 178.355,92.480 178.418 M334.153 187.305 C 334.153 192.461,334.209 194.516,334.276 191.872 C 334.344 189.228,334.344 185.009,334.276 182.497 C 334.208 179.985,334.153 182.148,334.153 187.305 M349.593 180.957 C 350.551 181.978,351.386 182.813,351.449 182.813 C 351.742 182.813,351.432 182.462,349.707 180.843 L 347.852 179.102 349.593 180.957 M143.080 183.008 C 143.083 184.082,143.159 184.475,143.249 183.881 C 143.339 183.288,143.336 182.409,143.244 181.928 C 143.151 181.448,143.078 181.934,143.080 183.008 M367.204 185.366 C 368.376 186.663,369.416 187.667,369.513 187.598 C 369.610 187.528,368.651 186.467,367.381 185.240 L 365.071 183.008 367.204 185.366 M38.398 187.500 C 38.398 188.682,38.472 189.165,38.561 188.574 C 38.651 187.983,38.651 187.017,38.561 186.426 C 38.472 185.835,38.398 186.318,38.398 187.500 M253.507 190.137 L 250.195 193.555 253.613 190.243 C 255.493 188.422,257.031 186.883,257.031 186.825 C 257.031 186.541,256.583 186.962,253.507 190.137 M159.904 190.820 C 159.903 192.754,159.969 193.594,160.051 192.688 C 160.133 191.781,160.134 190.199,160.053 189.172 C 159.972 188.145,159.905 188.887,159.904 190.820 M357.516 189.268 L 359.368 191.231 359.473 213.096 L 359.577 234.961 359.671 213.071 L 359.766 191.182 357.715 189.243 L 355.664 187.305 357.516 189.268 M55.611 191.602 C 55.612 193.750,55.678 194.579,55.757 193.444 C 55.836 192.309,55.836 190.551,55.755 189.538 C 55.675 188.524,55.610 189.453,55.611 191.602 M65.346 190.039 C 65.349 191.113,65.425 191.506,65.515 190.913 C 65.604 190.319,65.602 189.440,65.509 188.959 C 65.417 188.479,65.343 188.965,65.346 190.039 M369.258 190.234 C 369.258 191.416,369.331 191.899,369.420 191.309 C 369.510 190.718,369.510 189.751,369.420 189.160 C 369.331 188.569,369.258 189.053,369.258 190.234 M119.922 192.773 C 120.651 193.525,121.335 194.141,121.442 194.141 C 121.550 194.141,121.041 193.525,120.313 192.773 C 119.584 192.021,118.899 191.406,118.792 191.406 C 118.685 191.406,119.193 192.021,119.922 192.773 M138.849 193.066 L 137.305 194.727 138.965 193.182 C 140.509 191.746,140.805 191.406,140.509 191.406 C 140.445 191.406,139.698 192.153,138.849 193.066 M38.451 202.539 C 38.452 208.125,38.507 210.356,38.573 207.496 C 38.640 204.637,38.640 200.067,38.573 197.340 C 38.506 194.614,38.451 196.953,38.451 202.539 M260.540 196.777 L 256.445 200.977 260.645 196.882 C 264.545 193.079,265.021 192.578,264.739 192.578 C 264.682 192.578,262.792 194.468,260.540 196.777 M248.056 195.888 C 247.183 196.818,246.934 196.859,241.445 196.974 L 235.742 197.093 241.431 197.179 L 247.119 197.266 248.242 196.094 C 248.860 195.449,249.275 194.922,249.165 194.922 C 249.054 194.922,248.556 195.357,248.056 195.888 M65.371 198.438 C 65.371 200.264,65.438 201.011,65.520 200.098 C 65.603 199.185,65.603 197.690,65.520 196.777 C 65.438 195.864,65.371 196.611,65.371 198.438 M159.766 196.204 C 159.766 196.697,159.270 196.867,157.520 196.977 L 155.273 197.118 157.532 197.192 C 159.682 197.262,160.822 196.629,160.009 195.816 C 159.875 195.683,159.766 195.857,159.766 196.204 M190.751 197.168 C 197.803 197.228,209.229 197.227,216.142 197.168 C 223.055 197.108,217.285 197.059,203.320 197.059 C 189.355 197.059,183.699 197.108,190.751 197.168 M55.610 201.953 C 55.610 203.994,55.675 204.829,55.756 203.809 C 55.836 202.788,55.836 201.118,55.756 200.098 C 55.675 199.077,55.610 199.912,55.610 201.953 M334.129 202.344 C 334.129 204.600,334.193 205.522,334.272 204.395 C 334.351 203.267,334.351 201.421,334.272 200.293 C 334.193 199.165,334.129 200.088,334.129 202.344 M150.000 202.539 C 148.399 204.150,147.178 205.469,147.285 205.469 C 147.393 205.469,148.790 204.150,150.391 202.539 C 151.991 200.928,153.213 199.609,153.105 199.609 C 152.998 199.609,151.601 200.928,150.000 202.539 M253.310 204.395 L 250.586 207.227 253.418 204.503 C 256.048 201.973,256.428 201.563,256.142 201.563 C 256.082 201.563,254.808 202.837,253.310 204.395 M69.922 206.445 C 72.386 208.916,74.489 210.938,74.597 210.938 C 74.704 210.938,72.776 208.916,70.313 206.445 C 67.849 203.975,65.745 201.953,65.638 201.953 C 65.530 201.953,67.458 203.975,69.922 206.445 M369.252 204.883 C 369.255 205.957,369.331 206.350,369.421 205.756 C 369.511 205.163,369.508 204.284,369.416 203.803 C 369.323 203.323,369.249 203.809,369.252 204.883 M304.478 205.957 L 302.539 208.008 304.590 206.069 C 305.718 205.003,306.641 204.080,306.641 204.019 C 306.641 203.727,306.279 204.051,304.478 205.957 M289.634 207.129 L 287.695 209.180 289.746 207.241 C 291.652 205.440,291.976 205.078,291.685 205.078 C 291.623 205.078,290.700 206.001,289.634 207.129 M143.739 209.277 L 141.211 211.914 143.848 209.386 C 146.297 207.038,146.663 206.641,146.375 206.641 C 146.316 206.641,145.129 207.827,143.739 209.277 M58.789 208.984 C 59.628 209.844,60.403 210.547,60.510 210.547 C 60.618 210.547,60.019 209.844,59.180 208.984 C 58.341 208.125,57.566 207.422,57.459 207.422 C 57.351 207.422,57.950 208.125,58.789 208.984 M155.654 210.645 L 152.930 213.477 155.762 210.753 C 158.392 208.223,158.772 207.813,158.486 207.813 C 158.426 207.813,157.152 209.087,155.654 210.645 M334.113 210.742 C 334.114 212.246,334.185 212.813,334.269 212.003 C 334.354 211.193,334.353 209.962,334.266 209.269 C 334.180 208.575,334.111 209.238,334.113 210.742 M300.391 210.352 C 299.442 211.318,298.753 212.109,298.861 212.109 C 298.968 212.109,299.832 211.318,300.781 210.352 C 301.730 209.385,302.419 208.594,302.311 208.594 C 302.204 208.594,301.339 209.385,300.391 210.352 M369.266 213.281 C 369.266 214.678,369.337 215.249,369.423 214.551 C 369.510 213.853,369.510 212.710,369.423 212.012 C 369.337 211.313,369.266 211.885,369.266 213.281 M75.334 211.819 C 75.497 211.981,90.385 212.069,108.420 212.014 L 141.211 211.914 108.125 211.719 C 89.928 211.611,75.172 211.656,75.334 211.819 M66.602 217.188 C 69.173 219.766,71.365 221.875,71.472 221.875 C 71.580 221.875,69.564 219.766,66.992 217.188 C 64.421 214.609,62.229 212.500,62.122 212.500 C 62.014 212.500,64.030 214.609,66.602 217.188 M281.433 215.723 L 279.102 218.164 281.543 215.833 C 282.886 214.550,283.984 213.452,283.984 213.391 C 283.984 213.103,283.599 213.455,281.433 215.723 M295.105 215.723 L 292.773 218.164 295.215 215.833 C 296.558 214.550,297.656 213.452,297.656 213.391 C 297.656 213.103,297.271 213.455,295.105 215.723 M45.696 220.020 C 47.948 222.329,49.838 224.219,49.895 224.219 C 50.177 224.219,49.701 223.718,45.801 219.915 L 41.602 215.820 45.696 220.020 M369.281 219.922 C 369.281 221.963,369.347 222.798,369.428 221.777 C 369.508 220.757,369.508 219.087,369.428 218.066 C 369.347 217.046,369.281 217.881,369.281 219.922 M32.227 220.313 C 33.066 221.172,33.840 221.875,33.948 221.875 C 34.055 221.875,33.456 221.172,32.617 220.313 C 31.778 219.453,31.004 218.750,30.896 218.750 C 30.789 218.750,31.387 219.453,32.227 220.313 M144.716 221.973 L 141.992 224.805 144.824 222.081 C 147.455 219.551,147.835 219.141,147.548 219.141 C 147.489 219.141,146.214 220.415,144.716 221.973 M274.596 222.949 L 272.461 225.195 274.707 223.060 C 276.794 221.077,277.132 220.703,276.842 220.703 C 276.781 220.703,275.770 221.714,274.596 222.949 M86.041 222.155 C 86.634 222.245,87.513 222.243,87.994 222.150 C 88.474 222.057,87.988 221.984,86.914 221.987 C 85.840 221.990,85.447 222.066,86.041 222.155 M103.813 222.151 C 104.299 222.245,105.002 222.241,105.376 222.143 C 105.749 222.046,105.352 221.969,104.492 221.974 C 103.633 221.978,103.327 222.058,103.813 222.151 M110.840 222.158 C 111.538 222.244,112.681 222.244,113.379 222.158 C 114.077 222.071,113.506 222.000,112.109 222.000 C 110.713 222.000,110.142 222.071,110.840 222.158 M128.311 225.098 L 125.195 228.320 128.418 225.204 C 131.411 222.311,131.819 221.875,131.534 221.875 C 131.475 221.875,130.025 223.325,128.311 225.098 M35.742 223.828 C 36.581 224.688,37.356 225.391,37.463 225.391 C 37.571 225.391,36.972 224.688,36.133 223.828 C 35.294 222.969,34.519 222.266,34.412 222.266 C 34.304 222.266,34.903 222.969,35.742 223.828 M281.245 229.980 L 275.977 235.352 281.348 230.084 C 286.337 225.190,286.896 224.609,286.616 224.609 C 286.559 224.609,284.142 227.026,281.245 229.980 M179.875 229.004 L 175.977 233.008 179.883 229.223 C 183.037 226.166,184.052 225.408,185.156 225.281 L 186.523 225.125 185.149 225.063 C 183.890 225.005,183.446 225.337,179.875 229.004 M191.309 225.283 C 192.007 225.369,193.149 225.369,193.848 225.283 C 194.546 225.196,193.975 225.125,192.578 225.125 C 191.182 225.125,190.610 225.196,191.309 225.283 M202.854 225.292 C 205.391 225.360,209.434 225.360,211.838 225.291 C 214.243 225.223,212.168 225.167,207.227 225.167 C 202.285 225.168,200.318 225.224,202.854 225.292 M217.681 225.280 C 218.275 225.370,219.154 225.368,219.634 225.275 C 220.115 225.182,219.629 225.109,218.555 225.112 C 217.480 225.115,217.087 225.191,217.681 225.280 M222.754 225.280 C 223.345 225.369,224.312 225.369,224.902 225.280 C 225.493 225.190,225.010 225.117,223.828 225.117 C 222.646 225.117,222.163 225.190,222.754 225.280 M227.637 225.283 C 228.335 225.369,229.478 225.369,230.176 225.283 C 230.874 225.196,230.303 225.125,228.906 225.125 C 227.510 225.125,226.938 225.196,227.637 225.283 M241.309 225.286 C 242.222 225.368,243.716 225.368,244.629 225.286 C 245.542 225.204,244.795 225.136,242.969 225.136 C 241.143 225.136,240.396 225.204,241.309 225.286 M252.051 225.269 C 252.427 225.368,253.042 225.368,253.418 225.269 C 253.794 225.171,253.486 225.091,252.734 225.091 C 251.982 225.091,251.675 225.171,252.051 225.269 M266.128 225.289 C 267.371 225.367,269.304 225.366,270.424 225.287 C 271.545 225.209,270.527 225.145,268.164 225.146 C 265.801 225.147,264.884 225.211,266.128 225.289 M54.297 229.102 C 56.329 231.143,58.080 232.813,58.188 232.813 C 58.295 232.813,56.720 231.143,54.688 229.102 C 52.655 227.061,50.904 225.391,50.797 225.391 C 50.689 225.391,52.264 227.061,54.297 229.102 M37.891 226.279 C 37.891 226.338,39.253 227.701,40.918 229.307 L 43.945 232.227 41.025 229.199 C 38.313 226.387,37.891 225.994,37.891 226.279 M369.228 232.609 L 369.141 238.851 365.921 242.179 L 362.701 245.508 366.127 242.174 L 369.552 238.841 369.433 232.604 L 369.315 226.367 369.228 232.609 M136.904 230.176 L 134.180 233.008 137.012 230.284 C 139.642 227.754,140.022 227.344,139.736 227.344 C 139.676 227.344,138.402 228.618,136.904 230.176 M123.438 230.273 C 122.489 231.240,121.800 232.031,121.908 232.031 C 122.015 232.031,122.879 231.240,123.828 230.273 C 124.777 229.307,125.465 228.516,125.358 228.516 C 125.251 228.516,124.386 229.307,123.438 230.273 M118.154 235.645 L 115.430 238.477 118.262 235.753 C 120.892 233.223,121.272 232.813,120.986 232.813 C 120.926 232.813,119.652 234.087,118.154 235.645 M172.452 236.816 L 169.336 240.039 172.559 236.923 C 174.331 235.210,175.781 233.759,175.781 233.701 C 175.781 233.416,175.346 233.823,172.452 236.816 M319.727 235.938 C 320.566 236.797,321.340 237.500,321.448 237.500 C 321.555 237.500,320.956 236.797,320.117 235.938 C 319.278 235.078,318.504 234.375,318.396 234.375 C 318.289 234.375,318.887 235.078,319.727 235.938 M338.849 236.035 L 337.305 237.695 338.965 236.151 C 340.509 234.715,340.805 234.375,340.509 234.375 C 340.445 234.375,339.698 235.122,338.849 236.035 M185.534 237.012 L 183.398 239.258 185.549 237.217 L 187.700 235.176 194.338 235.058 L 200.977 234.941 194.323 234.853 L 187.669 234.766 185.534 237.012 M206.543 235.058 C 209.390 235.124,214.048 235.124,216.895 235.058 C 219.741 234.991,217.412 234.936,211.719 234.936 C 206.025 234.936,203.696 234.991,206.543 235.058 M227.251 235.042 C 227.737 235.135,228.440 235.132,228.813 235.034 C 229.187 234.936,228.789 234.860,227.930 234.864 C 227.070 234.868,226.765 234.948,227.251 235.042 M235.069 235.052 C 235.988 235.135,237.394 235.134,238.194 235.050 C 238.994 234.966,238.242 234.898,236.523 234.900 C 234.805 234.901,234.150 234.970,235.069 235.052 M241.119 235.046 C 241.712 235.136,242.591 235.133,243.072 235.041 C 243.552 234.948,243.066 234.874,241.992 234.877 C 240.918 234.880,240.525 234.956,241.119 235.046 M252.611 235.058 C 256.732 235.121,263.588 235.121,267.845 235.058 C 272.103 234.995,268.730 234.943,260.352 234.943 C 251.973 234.943,248.489 234.995,252.611 235.058 M128.702 238.770 L 125.586 241.992 128.809 238.876 C 130.581 237.163,132.031 235.712,132.031 235.654 C 132.031 235.369,131.596 235.776,128.702 238.770 M357.593 236.816 L 356.445 238.086 357.715 236.939 C 358.413 236.308,358.984 235.736,358.984 235.669 C 358.984 235.367,358.662 235.633,357.593 236.816 M63.086 238.281 C 63.925 239.141,64.700 239.844,64.807 239.844 C 64.914 239.844,64.316 239.141,63.477 238.281 C 62.637 237.422,61.863 236.719,61.756 236.719 C 61.648 236.719,62.247 237.422,63.086 238.281 M49.609 238.389 C 49.609 238.448,50.972 239.810,52.637 241.416 L 55.664 244.336 52.744 241.309 C 50.032 238.497,49.609 238.103,49.609 238.389 M114.222 239.450 C 113.976 239.696,104.913 239.876,89.437 239.941 L 65.039 240.045 89.503 240.140 C 110.850 240.222,114.029 240.160,114.453 239.648 C 114.996 238.994,114.825 238.847,114.222 239.450 M328.813 240.120 C 329.299 240.213,330.002 240.210,330.376 240.112 C 330.749 240.014,330.352 239.938,329.492 239.942 C 328.633 239.947,328.327 240.027,328.813 240.120 M176.752 246.191 L 171.680 251.367 176.855 246.295 C 179.702 243.505,182.031 241.176,182.031 241.119 C 182.031 240.839,181.464 241.384,176.752 246.191 M123.034 244.434 L 120.898 246.680 123.145 244.545 C 125.231 242.561,125.570 242.188,125.280 242.188 C 125.219 242.188,124.208 243.198,123.034 244.434 M164.432 245.215 L 163.086 246.680 164.551 245.334 C 165.914 244.081,166.195 243.750,165.897 243.750 C 165.832 243.750,165.172 244.409,164.432 245.215 M156.941 245.205 C 157.643 245.292,158.697 245.290,159.284 245.201 C 159.871 245.112,159.297 245.041,158.008 245.043 C 156.719 245.045,156.238 245.118,156.941 245.205 M346.671 248.145 L 343.555 251.367 346.777 248.251 C 349.770 245.357,350.178 244.922,349.893 244.922 C 349.834 244.922,348.384 246.372,346.671 248.145 M58.968 248.145 L 60.710 250.000 74.007 249.908 L 87.305 249.815 74.033 249.707 L 60.761 249.599 58.994 247.944 L 57.227 246.289 58.968 248.145 M120.876 258.398 C 120.876 264.844,120.930 267.535,120.995 264.380 C 121.061 261.224,121.061 255.951,120.995 252.661 C 120.930 249.371,120.876 251.953,120.876 258.398 M357.414 251.074 L 353.711 254.883 357.520 251.180 C 359.614 249.143,361.328 247.429,361.328 247.371 C 361.328 247.088,360.854 247.537,357.414 251.074 M148.218 249.316 L 147.070 250.586 148.340 249.439 C 149.523 248.369,149.789 248.047,149.487 248.047 C 149.420 248.047,148.849 248.618,148.218 249.316 M95.432 249.901 C 97.969 249.969,102.012 249.969,104.417 249.901 C 106.821 249.832,104.746 249.777,99.805 249.777 C 94.863 249.777,92.896 249.833,95.432 249.901 M232.520 253.394 C 232.896 253.493,233.511 253.493,233.887 253.394 C 234.263 253.296,233.955 253.216,233.203 253.216 C 232.451 253.216,232.144 253.296,232.520 253.394 M263.379 253.405 C 263.970 253.494,264.937 253.494,265.527 253.405 C 266.118 253.315,265.635 253.242,264.453 253.242 C 263.271 253.242,262.788 253.315,263.379 253.405 M268.853 253.405 C 269.447 253.495,270.326 253.493,270.806 253.400 C 271.287 253.307,270.801 253.234,269.727 253.237 C 268.652 253.240,268.259 253.316,268.853 253.405 M278.228 253.405 C 278.822 253.495,279.701 253.493,280.181 253.400 C 280.662 253.307,280.176 253.234,279.102 253.237 C 278.027 253.240,277.634 253.316,278.228 253.405 M289.563 253.413 C 290.590 253.493,292.172 253.492,293.078 253.410 C 293.985 253.329,293.145 253.262,291.211 253.264 C 289.277 253.265,288.536 253.332,289.563 253.413 M301.074 253.401 C 301.558 253.494,302.349 253.494,302.832 253.401 C 303.315 253.308,302.920 253.231,301.953 253.231 C 300.986 253.231,300.591 253.308,301.074 253.401 M311.035 253.410 C 311.841 253.494,313.159 253.494,313.965 253.410 C 314.771 253.325,314.111 253.256,312.500 253.256 C 310.889 253.256,310.229 253.325,311.035 253.410 M325.109 253.413 C 326.136 253.493,327.718 253.492,328.625 253.410 C 329.532 253.329,328.691 253.262,326.758 253.264 C 324.824 253.265,324.082 253.332,325.109 253.413 M332.329 253.401 C 332.815 253.495,333.518 253.491,333.891 253.393 C 334.265 253.296,333.867 253.219,333.008 253.224 C 332.148 253.228,331.843 253.308,332.329 253.401 M160.587 254.402 C 161.317 254.890,162.221 255.901,162.597 256.648 C 163.040 257.529,163.280 257.751,163.281 257.278 C 163.281 256.461,160.521 253.516,159.754 253.516 C 159.482 253.516,159.857 253.915,160.587 254.402 M153.947 255.287 C 153.280 256.046,152.741 256.969,152.750 257.338 C 152.758 257.724,152.987 257.498,153.290 256.803 C 153.578 256.140,154.298 255.217,154.890 254.752 C 155.481 254.287,155.783 253.906,155.562 253.906 C 155.340 253.906,154.614 254.528,153.947 255.287 M210.156 261.914 C 208.556 263.525,207.334 264.844,207.441 264.844 C 207.549 264.844,208.946 263.525,210.547 261.914 C 212.147 260.303,213.369 258.984,213.262 258.984 C 213.154 258.984,211.757 260.303,210.156 261.914 M347.449 261.426 L 345.117 263.867 347.559 261.536 C 348.901 260.253,350.000 259.155,350.000 259.094 C 350.000 258.806,349.614 259.158,347.449 261.426 M152.735 260.300 C 152.734 261.117,155.495 264.063,156.262 264.063 C 156.534 264.063,156.159 263.663,155.429 263.176 C 154.699 262.688,153.794 261.677,153.419 260.930 C 152.976 260.049,152.735 259.827,152.735 260.300 M162.497 261.335 C 162.211 262.027,161.400 262.854,160.589 263.283 C 159.814 263.693,159.406 264.036,159.682 264.045 C 160.917 264.088,163.827 260.963,163.167 260.303 C 163.073 260.208,162.771 260.673,162.497 261.335 M250.653 263.184 C 266.159 263.240,291.647 263.240,307.294 263.184 C 322.940 263.127,310.254 263.081,279.102 263.081 C 247.949 263.081,235.147 263.127,250.653 263.184 M222.249 268.066 C 223.207 269.087,224.042 269.922,224.105 269.922 C 224.398 269.922,224.088 269.571,222.363 267.952 L 220.508 266.211 222.249 268.066 M149.577 269.673 C 150.097 270.314,151.563 271.282,151.563 270.986 C 151.563 270.911,150.991 270.432,150.293 269.921 C 149.507 269.346,149.235 269.251,149.577 269.673 M198.233 274.316 L 195.117 277.539 198.340 274.423 C 201.333 271.529,201.741 271.094,201.456 271.094 C 201.397 271.094,199.947 272.544,198.233 274.316 M125.781 275.195 C 127.814 277.236,129.565 278.906,129.672 278.906 C 129.779 278.906,128.204 277.236,126.172 275.195 C 124.139 273.154,122.388 271.484,122.281 271.484 C 122.174 271.484,123.749 273.154,125.781 275.195 M210.537 275.684 L 207.617 278.711 210.556 275.879 L 213.495 273.047 214.649 274.121 L 215.804 275.195 214.665 273.926 C 214.038 273.228,213.510 272.656,213.491 272.656 C 213.472 272.656,212.143 274.019,210.537 275.684 M231.055 277.344 C 232.763 279.063,234.249 280.469,234.357 280.469 C 234.464 280.469,233.154 279.063,231.445 277.344 C 229.737 275.625,228.251 274.219,228.143 274.219 C 228.036 274.219,229.346 275.625,231.055 277.344 M116.009 279.004 C 118.261 281.313,120.150 283.203,120.208 283.203 C 120.490 283.203,120.014 282.702,116.113 278.899 L 111.914 274.805 116.009 279.004 M221.094 281.055 C 222.261 282.236,223.303 283.203,223.411 283.203 C 223.518 283.203,222.651 282.236,221.484 281.055 C 220.317 279.873,219.275 278.906,219.167 278.906 C 219.060 278.906,219.927 279.873,221.094 281.055 M203.785 282.738 L 200.360 286.179 201.254 286.924 C 202.137 287.660,202.140 287.660,201.462 286.912 C 200.796 286.178,200.881 286.048,204.188 282.726 C 206.065 280.840,207.513 279.297,207.406 279.297 C 207.298 279.297,205.669 280.845,203.785 282.738 M189.640 283.301 L 186.133 286.914 189.746 283.407 C 193.102 280.149,193.537 279.688,193.254 279.688 C 193.195 279.688,191.569 281.313,189.640 283.301 M124.805 288.281 C 126.945 290.430,128.784 292.188,128.892 292.188 C 128.999 292.188,127.336 290.430,125.195 288.281 C 123.055 286.133,121.216 284.375,121.108 284.375 C 121.001 284.375,122.664 286.133,124.805 288.281 M229.688 290.039 C 232.367 292.725,234.646 294.922,234.754 294.922 C 234.861 294.922,232.757 292.725,230.078 290.039 C 227.399 287.354,225.119 285.156,225.012 285.156 C 224.904 285.156,227.008 287.354,229.688 290.039 M138.867 288.672 C 140.576 290.391,142.062 291.797,142.169 291.797 C 142.277 291.797,140.966 290.391,139.258 288.672 C 137.549 286.953,136.063 285.547,135.956 285.547 C 135.848 285.547,137.159 286.953,138.867 288.672 M184.161 289.160 L 182.617 290.820 184.277 289.276 C 185.821 287.840,186.117 287.500,185.821 287.500 C 185.758 287.500,185.011 288.247,184.161 289.160 M204.297 290.430 C 205.026 291.182,205.710 291.797,205.817 291.797 C 205.925 291.797,205.416 291.182,204.688 290.430 C 203.959 289.678,203.274 289.063,203.167 289.063 C 203.060 289.063,203.568 289.678,204.297 290.430 M343.729 291.309 L 342.383 292.773 343.848 291.427 C 345.211 290.174,345.492 289.844,345.194 289.844 C 345.129 289.844,344.469 290.503,343.729 291.309 M244.922 291.318 C 244.922 291.485,246.284 292.935,247.949 294.541 L 250.977 297.461 248.057 294.434 L 245.137 291.406 287.684 291.406 L 330.231 291.406 328.885 292.871 L 327.539 294.336 329.004 292.990 C 329.810 292.249,330.469 291.502,330.469 291.330 C 330.469 291.157,311.221 291.016,287.695 291.016 C 264.170 291.016,244.922 291.152,244.922 291.318 M208.008 294.531 C 208.847 295.391,209.621 296.094,209.729 296.094 C 209.836 296.094,209.238 295.391,208.398 294.531 C 207.559 293.672,206.785 292.969,206.677 292.969 C 206.570 292.969,207.169 293.672,208.008 294.531 M188.858 298.145 L 185.742 301.367 188.965 298.251 C 191.958 295.357,192.366 294.922,192.081 294.922 C 192.022 294.922,190.572 296.372,188.858 298.145 M325.177 296.582 L 323.633 298.242 325.293 296.698 C 326.837 295.262,327.133 294.922,326.837 294.922 C 326.773 294.922,326.026 295.669,325.177 296.582 M337.500 297.852 C 335.899 299.463,334.678 300.781,334.785 300.781 C 334.893 300.781,336.290 299.463,337.891 297.852 C 339.491 296.240,340.713 294.922,340.605 294.922 C 340.498 294.922,339.101 296.240,337.500 297.852 M199.023 299.219 C 199.863 300.078,200.637 300.781,200.744 300.781 C 200.852 300.781,200.253 300.078,199.414 299.219 C 198.575 298.359,197.800 297.656,197.693 297.656 C 197.586 297.656,198.184 298.359,199.023 299.219 M212.305 299.219 C 213.144 300.078,213.918 300.781,214.026 300.781 C 214.133 300.781,213.534 300.078,212.695 299.219 C 211.856 298.359,211.082 297.656,210.974 297.656 C 210.867 297.656,211.466 298.359,212.305 299.219 M136.505 300.293 L 138.049 301.953 157.794 301.859 L 177.539 301.765 157.825 301.660 L 138.111 301.555 136.536 300.094 L 134.961 298.633 136.505 300.293 M257.227 304.297 C 260.013 307.090,262.381 309.375,262.489 309.375 C 262.596 309.375,260.404 307.090,257.617 304.297 C 254.830 301.504,252.462 299.219,252.355 299.219 C 252.248 299.219,254.440 301.504,257.227 304.297 M242.383 303.125 C 244.091 304.844,245.577 306.250,245.685 306.250 C 245.792 306.250,244.482 304.844,242.773 303.125 C 241.065 301.406,239.579 300.000,239.471 300.000 C 239.364 300.000,240.674 301.406,242.383 303.125 M319.325 302.832 L 316.602 305.664 319.434 302.940 C 322.064 300.410,322.444 300.000,322.157 300.000 C 322.098 300.000,320.824 301.274,319.325 302.832 M181.934 301.845 C 182.632 301.932,183.774 301.932,184.473 301.845 C 185.171 301.758,184.600 301.688,183.203 301.688 C 181.807 301.688,181.235 301.758,181.934 301.845 M202.930 303.516 C 203.769 304.375,204.543 305.078,204.651 305.078 C 204.758 305.078,204.159 304.375,203.320 303.516 C 202.481 302.656,201.707 301.953,201.599 301.953 C 201.492 301.953,202.091 302.656,202.930 303.516 M215.625 302.857 C 215.625 302.924,216.196 303.495,216.895 304.126 L 218.164 305.273 217.017 304.004 C 215.947 302.821,215.625 302.555,215.625 302.857 M330.078 305.664 C 329.129 306.631,328.441 307.422,328.548 307.422 C 328.656 307.422,329.520 306.631,330.469 305.664 C 331.418 304.697,332.106 303.906,331.999 303.906 C 331.891 303.906,331.027 304.697,330.078 305.664 M207.617 308.594 C 208.456 309.453,209.231 310.156,209.338 310.156 C 209.446 310.156,208.847 309.453,208.008 308.594 C 207.169 307.734,206.394 307.031,206.287 307.031 C 206.179 307.031,206.778 307.734,207.617 308.594 M310.926 311.621 L 308.398 314.258 311.035 311.730 C 312.485 310.340,313.672 309.153,313.672 309.093 C 313.672 308.806,313.274 309.172,310.926 311.621 M252.539 313.672 C 254.248 315.391,255.734 316.797,255.841 316.797 C 255.948 316.797,254.638 315.391,252.930 313.672 C 251.221 311.953,249.735 310.547,249.628 310.547 C 249.520 310.547,250.830 311.953,252.539 313.672 M225.000 313.086 C 225.729 313.838,226.413 314.453,226.520 314.453 C 226.628 314.453,226.119 313.838,225.391 313.086 C 224.662 312.334,223.978 311.719,223.870 311.719 C 223.763 311.719,224.271 312.334,225.000 313.086 M266.406 313.867 C 267.573 315.049,268.616 316.016,268.723 316.016 C 268.831 316.016,267.964 315.049,266.797 313.867 C 265.630 312.686,264.587 311.719,264.480 311.719 C 264.372 311.719,265.239 312.686,266.406 313.867 M210.938 312.232 C 210.938 312.299,211.509 312.870,212.207 313.501 L 213.477 314.648 212.329 313.379 C 211.260 312.196,210.938 311.930,210.938 312.232 M318.352 317.871 L 314.648 321.680 318.457 317.976 C 320.552 315.940,322.266 314.226,322.266 314.168 C 322.266 313.885,321.791 314.334,318.352 317.871 M215.820 317.578 C 217.096 318.867,218.227 319.922,218.335 319.922 C 218.442 319.922,217.487 318.867,216.211 317.578 C 214.935 316.289,213.804 315.234,213.696 315.234 C 213.589 315.234,214.545 316.289,215.820 317.578 M228.320 316.797 C 229.159 317.656,229.934 318.359,230.041 318.359 C 230.149 318.359,229.550 317.656,228.711 316.797 C 227.872 315.938,227.097 315.234,226.990 315.234 C 226.882 315.234,227.481 315.938,228.320 316.797 M274.727 317.088 C 276.833 317.159,280.173 317.158,282.149 317.088 C 284.125 317.017,282.402 316.959,278.320 316.960 C 274.238 316.960,272.621 317.018,274.727 317.088 M289.746 317.083 C 290.659 317.165,292.153 317.165,293.066 317.083 C 293.979 317.001,293.232 316.933,291.406 316.933 C 289.580 316.933,288.833 317.001,289.746 317.083 M296.582 317.077 C 297.173 317.166,298.140 317.166,298.730 317.077 C 299.321 316.987,298.838 316.914,297.656 316.914 C 296.475 316.914,295.991 316.987,296.582 317.077 M259.180 320.313 C 260.455 321.602,261.587 322.656,261.694 322.656 C 261.802 322.656,260.846 321.602,259.570 320.313 C 258.295 319.023,257.163 317.969,257.056 317.969 C 256.948 317.969,257.904 319.023,259.180 320.313 M232.015 320.801 C 233.634 322.525,233.984 322.836,233.984 322.542 C 233.984 322.480,233.149 321.645,232.129 320.687 L 230.273 318.945 232.015 320.801 M222.266 324.805 C 222.994 325.557,223.679 326.172,223.786 326.172 C 223.893 326.172,223.385 325.557,222.656 324.805 C 221.927 324.053,221.243 323.438,221.136 323.438 C 221.028 323.438,221.537 324.053,222.266 324.805 M262.393 323.856 C 262.715 324.271,262.909 326.623,262.989 331.083 L 263.106 337.695 263.194 331.005 C 263.272 325.034,263.208 324.257,262.598 323.778 C 261.995 323.306,261.971 323.315,262.393 323.856 M234.766 323.950 C 234.766 324.018,235.337 324.589,236.035 325.220 L 237.305 326.367 236.157 325.098 C 235.088 323.914,234.766 323.649,234.766 323.950 M311.307 325.293 L 309.961 326.758 311.426 325.412 C 312.789 324.159,313.070 323.828,312.772 323.828 C 312.707 323.828,312.047 324.487,311.307 325.293 M225.765 328.613 C 226.723 329.634,227.558 330.469,227.620 330.469 C 227.914 330.469,227.604 330.118,225.879 328.499 L 224.023 326.758 225.765 328.613 M272.831 339.648 C 272.831 346.738,272.884 349.694,272.948 346.216 C 273.013 342.739,273.013 336.938,272.949 333.326 C 272.884 329.713,272.831 332.559,272.831 339.648 M242.188 332.153 C 242.188 332.221,242.759 332.792,243.457 333.423 L 244.727 334.570 243.579 333.301 C 242.510 332.117,242.188 331.852,242.188 332.153 M229.297 332.544 C 229.297 332.611,229.868 333.183,230.566 333.814 L 231.836 334.961 230.689 333.691 C 229.619 332.508,229.297 332.242,229.297 332.544 M233.008 336.719 C 233.847 337.578,234.621 338.281,234.729 338.281 C 234.836 338.281,234.238 337.578,233.398 336.719 C 232.559 335.859,231.785 335.156,231.677 335.156 C 231.570 335.156,232.169 335.859,233.008 336.719 M235.938 339.966 C 235.938 340.033,236.509 340.604,237.207 341.236 L 238.477 342.383 237.329 341.113 C 236.260 339.930,235.938 339.664,235.938 339.966 M263.049 346.680 C 263.049 350.117,263.109 351.471,263.182 349.688 C 263.254 347.906,263.254 345.093,263.181 343.438 C 263.108 341.784,263.048 343.242,263.049 346.680 M240.039 344.531 C 240.878 345.391,241.653 346.094,241.760 346.094 C 241.868 346.094,241.269 345.391,240.430 344.531 C 239.591 343.672,238.816 342.969,238.709 342.969 C 238.601 342.969,239.200 343.672,240.039 344.531 " stroke="none" fill="#99c0d0" fill-rule="evenodd"></path></g></svg>