<?xml version="1.0" standalone="no"?>
<!DOCTYPE svg PUBLIC "-//W3C//DTD SVG 20010904//EN"
 "https://www.w3.org/TR/2001/REC-SVG-20010904/DTD/svg10.dtd">
<svg version="1.0" xmlns="https://www.w3.org/2000/svg"
 width="1024.000000pt" height="1024.000000pt" viewBox="0 0 1024.000000 1024.000000"
 preserveAspectRatio="xMidYMid meet">
<metadata>
Created by potrace 1.16, written by Peter Selinger 2001-2019
</metadata>
<g transform="translate(0.000000,1024.000000) scale(0.100000,-0.100000)"
fill="#000000" stroke="none">
<path d="M2934 8011 l-349 -360 -298 0 -298 -1 -172 -177 c-184 -191 -346
-359 -470 -489 l-77 -82 0 -223 0 -224 -143 -145 c-78 -80 -197 -202 -265
-273 l-122 -127 -2 -598 c-2 -328 -1 -602 2 -609 5 -11 227 -245 510 -538 80
-82 182 -187 225 -233 l80 -82 620 -4 c341 -2 632 -5 648 -5 l27 -1 0 -307 0
-307 113 -116 c61 -63 215 -222 341 -353 l228 -237 608 0 607 0 103 105 c57
58 106 105 110 105 8 0 766 -832 1139 -1250 96 -107 182 -204 192 -215 19 -19
19 -15 19 166 l0 185 -92 105 c-51 57 -164 183 -253 280 -88 96 -242 265 -341
375 -100 109 -251 275 -336 369 l-155 169 165 173 c129 135 168 171 177 161
28 -31 282 -297 535 -558 151 -157 338 -350 415 -430 77 -80 179 -185 227
-235 l88 -89 -1 -301 c-1 -165 -1 -328 0 -362 l1 -61 37 10 c21 6 75 8 120 6
l83 -4 1 40 c0 23 0 168 -1 324 l-1 282 474 0 475 0 78 82 c44 46 156 162 249
258 162 166 403 420 527 553 l58 62 0 334 0 334 242 251 c133 138 271 281 306
317 l64 66 3 652 4 652 -56 62 c-32 34 -131 140 -222 235 l-165 172 2 232 c2
128 0 256 -4 284 l-6 53 -247 253 c-135 140 -439 454 -676 698 -236 244 -475
490 -531 547 l-100 103 -195 10 c-224 11 -828 47 -908 54 l-54 5 6 -59 c6 -53
-1 -113 -19 -177 -6 -22 -4 -23 67 -23 68 0 346 -16 702 -40 81 -5 179 -10
218 -10 l70 0 67 -68 c69 -70 639 -657 657 -676 25 -28 309 -321 497 -514
l208 -213 0 -205 0 -204 -230 0 -230 0 0 -588 0 -587 -45 -24 c-58 -31 -110
-89 -144 -160 -22 -47 -26 -70 -26 -146 0 -78 4 -98 27 -145 60 -122 163 -190
298 -198 109 -6 176 21 256 102 77 78 99 135 98 253 0 71 -5 90 -33 147 -33
68 -98 135 -158 164 l-33 16 0 458 0 458 159 0 159 0 64 -67 c34 -38 111 -118
170 -179 l108 -110 0 -557 0 -557 -69 -72 c-38 -40 -141 -147 -228 -237 l-159
-164 -1574 2 -1575 1 -133 -137 c-73 -76 -268 -280 -434 -453 -166 -173 -321
-334 -346 -357 l-44 -43 -507 0 -506 0 -273 281 -272 282 0 294 0 294 168 172
c164 168 233 240 626 650 l189 197 1172 0 1172 0 204 213 c112 116 239 248
281 292 l78 80 0 302 0 303 35 14 c49 21 130 100 154 150 68 146 39 306 -76
418 -66 65 -130 91 -218 91 -141 0 -257 -69 -317 -190 -30 -62 -33 -75 -33
-163 0 -85 3 -101 28 -148 37 -71 86 -123 141 -151 l46 -22 0 -250 0 -250
-207 -220 -208 -219 -1173 2 -1173 2 -127 -135 c-70 -73 -192 -199 -272 -279
-80 -80 -163 -166 -184 -190 -22 -25 -138 -147 -259 -272 l-220 -228 -624 0
-623 0 -178 183 c-98 100 -253 261 -345 357 l-167 175 0 502 0 502 222 228
c122 125 243 248 270 274 l48 45 0 226 0 227 283 295 282 296 302 0 302 0 321
338 c178 185 333 347 347 360 l24 22 792 -2 792 -3 3 -916 2 -916 -59 -36
c-71 -45 -123 -117 -147 -205 -15 -55 -16 -73 -6 -134 15 -83 61 -176 109
-218 135 -119 320 -117 452 6 85 78 116 144 116 249 0 116 -23 174 -99 250
-34 33 -76 68 -94 77 l-32 17 0 1038 1 1038 -964 3 -963 2 -350 -359z m3995
-1435 c60 -31 85 -115 54 -176 -39 -75 -128 -102 -194 -57 -41 28 -59 60 -59
110 0 103 108 170 199 123z m-1772 -506 c124 -75 76 -250 -68 -250 -52 0 -90
23 -114 70 -61 118 71 248 182 180z m3354 -1511 c31 -22 59 -76 59 -114 0 -62
-68 -135 -126 -135 -85 0 -144 58 -144 143 0 107 123 168 211 106z m78 -1306
c0 -142 -4 -279 -7 -305 -8 -52 24 -16 -541 -605 l-213 -223 -463 0 -464 0
-58 63 c-32 34 -132 139 -223 232 -391 403 -579 603 -572 610 4 5 2 5 -5 2 -7
-4 -92 77 -212 203 l-201 209 36 35 35 34 1445 1 1444 2 -1 -258z"/>
<path d="M3219 5885 c-76 -24 -140 -74 -184 -142 -38 -59 -42 -61 -90 -67 -27
-4 -380 -5 -783 -4 l-732 3 0 -130 0 -130 788 3 789 2 18 -40 c23 -51 102
-125 163 -153 37 -17 66 -22 132 -22 108 0 175 30 249 110 70 77 94 146 89
251 -7 136 -79 248 -194 301 -69 31 -179 39 -245 18z m180 -223 c55 -40 69
-125 32 -186 -25 -40 -58 -56 -114 -56 -54 0 -99 28 -121 75 -59 123 94 248
203 167z"/>
</g>
</svg>
